<svg width="337" height="84" viewBox="0 0 337 84" fill="none" xmlns="http://www.w3.org/2000/svg">
<circle cx="32" cy="42" r="32" fill="#FFC572"/>
<path d="M50.7055 38.4249C50.98 38.6944 51.1272 38.9937 51.147 39.3228C51.1669 39.652 51.0552 39.9405 50.812 40.1883L29.25 62.1551C29.0067 62.403 28.7203 62.52 28.3909 62.5063C28.0614 62.4925 27.7594 62.3509 27.4849 62.0815L17.7531 52.529C15.3076 50.1286 13.5779 47.723 12.5638 45.3119C11.5275 42.9234 11.2223 40.5889 11.648 38.3083C12.0516 36.0502 13.2001 33.8819 15.0935 31.8032C16.0416 30.7874 16.8805 29.9078 17.6103 29.1643C18.3401 28.4208 19.193 27.5769 20.1689 26.6326C22.3254 24.6353 24.5273 23.3903 26.7746 22.8978C28.997 22.3807 31.2883 22.617 33.6486 23.6067C35.9618 24.5944 38.3411 26.2884 40.7865 28.6887L50.7055 38.4249ZM40.1645 37.6334L36.1969 33.7389C35.1239 32.6857 34.0943 31.9626 33.1081 31.5697C32.0748 31.1748 31.0629 31.1326 30.0722 31.4431C29.0566 31.729 28.0166 32.3892 26.9522 33.4237C26.261 34.028 25.661 34.5893 25.1524 35.1075C24.6188 35.6012 24.1102 36.1194 23.6265 36.6621C23.1178 37.1803 22.5789 37.7793 22.0096 38.4591C20.5556 40.0402 19.9101 41.5963 20.073 43.1275C20.1888 44.6567 21.0701 46.2296 22.717 47.8462L26.4975 51.557L40.1645 37.6334Z" fill="#0E0E0E"/>
<g clip-path="url(#clip0_25_1040)">
<path d="M35 51.6666L39.8808 49.7616L41.6667 44.9999L43.4525 49.7616L48.5 51.6666L43.4525 53.5716L41.6667 58.3333L39.8808 53.5716L35 51.6666Z" fill="white" stroke="white" stroke-width="2" stroke-linecap="round" stroke-linejoin="round"/>
</g>
<path d="M105.472 61.56C102.224 61.56 99.4987 61.0747 97.296 60.104C95.0933 59.096 93.3947 57.808 92.2 56.24C91.0427 54.6347 90.4267 52.936 90.352 51.144C90.352 50.8453 90.464 50.584 90.688 50.36C90.9493 50.0987 91.248 49.968 91.584 49.968H94.44C94.888 49.968 95.224 50.08 95.448 50.304C95.672 50.528 95.8213 50.7893 95.896 51.088C96.0827 51.984 96.5307 52.88 97.24 53.776C97.9867 54.6347 99.0133 55.3627 100.32 55.96C101.664 56.52 103.381 56.8 105.472 56.8C108.683 56.8 111.035 56.24 112.528 55.12C114.059 53.9627 114.824 52.432 114.824 50.528C114.824 49.2213 114.413 48.176 113.592 47.392C112.808 46.5707 111.595 45.8427 109.952 45.208C108.309 44.5733 106.181 43.8827 103.568 43.136C100.843 42.352 98.584 41.4933 96.792 40.56C95 39.6267 93.656 38.4693 92.76 37.088C91.9013 35.7067 91.472 33.952 91.472 31.824C91.472 29.808 92.0133 28.016 93.096 26.448C94.1787 24.8427 95.728 23.5733 97.744 22.64C99.7973 21.7067 102.28 21.24 105.192 21.24C107.507 21.24 109.523 21.5573 111.24 22.192C112.995 22.7893 114.451 23.6107 115.608 24.656C116.765 25.664 117.643 26.7653 118.24 27.96C118.837 29.1173 119.155 30.256 119.192 31.376C119.192 31.6373 119.099 31.8987 118.912 32.16C118.725 32.384 118.427 32.496 118.016 32.496H115.048C114.787 32.496 114.507 32.4213 114.208 32.272C113.947 32.1227 113.741 31.8427 113.592 31.432C113.368 29.9013 112.509 28.6133 111.016 27.568C109.523 26.5227 107.581 26 105.192 26C102.765 26 100.787 26.4667 99.256 27.4C97.7627 28.3333 97.016 29.7893 97.016 31.768C97.016 33.0373 97.3707 34.1013 98.08 34.96C98.7893 35.7813 99.9093 36.5093 101.44 37.144C102.971 37.7787 104.968 38.4507 107.432 39.16C110.419 39.9813 112.864 40.8587 114.768 41.792C116.672 42.688 118.072 43.8267 118.968 45.208C119.901 46.552 120.368 48.288 120.368 50.416C120.368 52.768 119.752 54.784 118.52 56.464C117.288 58.1067 115.552 59.376 113.312 60.272C111.109 61.1307 108.496 61.56 105.472 61.56ZM134.886 61C134.513 61 134.196 60.888 133.934 60.664C133.71 60.4027 133.598 60.0853 133.598 59.712V26.784H122.846C122.473 26.784 122.156 26.672 121.894 26.448C121.67 26.1867 121.558 25.8693 121.558 25.496V23.144C121.558 22.7333 121.67 22.416 121.894 22.192C122.156 21.9307 122.473 21.8 122.846 21.8H149.838C150.249 21.8 150.566 21.9307 150.79 22.192C151.052 22.416 151.182 22.7333 151.182 23.144V25.496C151.182 25.8693 151.052 26.1867 150.79 26.448C150.566 26.672 150.249 26.784 149.838 26.784H139.142V59.712C139.142 60.0853 139.012 60.4027 138.75 60.664C138.526 60.888 138.209 61 137.798 61H134.886ZM148.432 61C148.133 61 147.872 60.888 147.648 60.664C147.424 60.44 147.312 60.1787 147.312 59.88C147.312 59.6933 147.331 59.488 147.368 59.264L161.256 23.032C161.405 22.6587 161.611 22.36 161.872 22.136C162.133 21.912 162.525 21.8 163.048 21.8H166.856C167.341 21.8 167.715 21.912 167.976 22.136C168.275 22.36 168.499 22.6587 168.648 23.032L182.48 59.264C182.555 59.488 182.592 59.6933 182.592 59.88C182.592 60.1787 182.48 60.44 182.256 60.664C182.032 60.888 181.771 61 181.472 61H178.616C178.168 61 177.832 60.888 177.608 60.664C177.421 60.44 177.291 60.2347 177.216 60.048L174.136 52.096H155.768L152.688 60.048C152.651 60.2347 152.52 60.44 152.296 60.664C152.072 60.888 151.736 61 151.288 61H148.432ZM157.392 47.28H172.512L164.952 27.4L157.392 47.28ZM187.627 61C187.217 61 186.899 60.888 186.675 60.664C186.451 60.4027 186.339 60.0853 186.339 59.712V23.144C186.339 22.7333 186.451 22.416 186.675 22.192C186.899 21.9307 187.217 21.8 187.627 21.8H201.291C205.51 21.8 208.852 22.7893 211.316 24.768C213.78 26.7467 215.012 29.6773 215.012 33.56C215.012 36.4347 214.284 38.7867 212.827 40.616C211.409 42.408 209.467 43.6587 207.004 44.368L215.627 59.264C215.74 59.488 215.796 59.6933 215.796 59.88C215.796 60.1787 215.665 60.44 215.403 60.664C215.179 60.888 214.918 61 214.619 61H211.932C211.297 61 210.83 60.832 210.532 60.496C210.233 60.16 209.972 59.824 209.747 59.488L201.627 45.264H191.827V59.712C191.827 60.0853 191.697 60.4027 191.435 60.664C191.211 60.888 190.894 61 190.483 61H187.627ZM191.827 40.504H201.068C203.867 40.504 205.958 39.9253 207.339 38.768C208.721 37.5733 209.411 35.8187 209.411 33.504C209.411 31.2267 208.721 29.4907 207.339 28.296C205.996 27.1013 203.905 26.504 201.068 26.504H191.827V40.504ZM222.083 61C221.672 61 221.355 60.888 221.131 60.664C220.907 60.4027 220.795 60.0853 220.795 59.712V23.144C220.795 22.7333 220.907 22.416 221.131 22.192C221.355 21.9307 221.672 21.8 222.083 21.8H224.883C225.293 21.8 225.611 21.9307 225.835 22.192C226.096 22.416 226.227 22.7333 226.227 23.144V37.032L241.179 22.696C241.328 22.5467 241.571 22.36 241.907 22.136C242.28 21.912 242.765 21.8 243.363 21.8H246.387C246.685 21.8 246.947 21.912 247.171 22.136C247.395 22.36 247.507 22.6213 247.507 22.92C247.507 23.2187 247.432 23.4613 247.283 23.648L229.979 40.56L248.403 59.096C248.589 59.32 248.683 59.5813 248.683 59.88C248.683 60.1787 248.571 60.44 248.347 60.664C248.123 60.888 247.861 61 247.563 61H244.427C243.792 61 243.307 60.888 242.971 60.664C242.635 60.4027 242.392 60.216 242.243 60.104L226.227 44.312V59.712C226.227 60.0853 226.096 60.4027 225.835 60.664C225.611 60.888 225.293 61 224.883 61H222.083ZM252.636 61C252.225 61 251.889 60.8693 251.628 60.608C251.366 60.3467 251.236 60.0107 251.236 59.6V23.2C251.236 22.7893 251.366 22.4533 251.628 22.192C251.889 21.9307 252.225 21.8 252.636 21.8H267.196C270.854 21.8 273.972 22.3973 276.548 23.592C279.124 24.7493 281.102 26.4667 282.484 28.744C283.865 30.984 284.612 33.7653 284.724 37.088C284.761 38.7307 284.78 40.168 284.78 41.4C284.78 42.632 284.761 44.0507 284.724 45.656C284.574 49.128 283.828 52.0027 282.484 54.28C281.177 56.5573 279.254 58.256 276.716 59.376C274.214 60.4587 271.134 61 267.476 61H252.636ZM261.26 52.936H267.196C268.801 52.936 270.126 52.6933 271.172 52.208C272.254 51.6853 273.057 50.8827 273.58 49.8C274.14 48.7173 274.438 47.2987 274.476 45.544C274.55 44.4613 274.588 43.4907 274.588 42.632C274.625 41.7733 274.625 40.9147 274.588 40.056C274.588 39.1973 274.55 38.2453 274.476 37.2C274.401 34.6613 273.729 32.8133 272.46 31.656C271.228 30.4613 269.38 29.864 266.916 29.864H261.26V52.936ZM290.482 61C290.071 61 289.735 60.8693 289.474 60.608C289.212 60.3467 289.082 60.0107 289.082 59.6V23.2C289.082 22.7893 289.212 22.4533 289.474 22.192C289.735 21.9307 290.071 21.8 290.482 21.8H297.986C298.396 21.8 298.732 21.9307 298.994 22.192C299.255 22.4533 299.386 22.7893 299.386 23.2V59.6C299.386 60.0107 299.255 60.3467 298.994 60.608C298.732 60.8693 298.396 61 297.986 61H290.482ZM315.022 61C314.611 61 314.275 60.8693 314.014 60.608C313.752 60.3467 313.622 60.0107 313.622 59.6V30.592H303.654C303.243 30.592 302.907 30.4613 302.646 30.2C302.384 29.9013 302.254 29.5653 302.254 29.192V23.2C302.254 22.7893 302.384 22.4533 302.646 22.192C302.907 21.9307 303.243 21.8 303.654 21.8H333.782C334.192 21.8 334.528 21.9307 334.79 22.192C335.051 22.4533 335.182 22.7893 335.182 23.2V29.192C335.182 29.5653 335.051 29.9013 334.79 30.2C334.528 30.4613 334.192 30.592 333.782 30.592H323.814V59.6C323.814 60.0107 323.683 60.3467 323.422 60.608C323.16 60.8693 322.824 61 322.414 61H315.022Z" fill="white"/>
<defs>
<clipPath id="clip0_25_1040">
<rect width="20" height="20" fill="white" transform="translate(31 60) rotate(-90)"/>
</clipPath>
</defs>
</svg>
