<svg width="64" height="64" viewBox="0 0 64 64" fill="none" xmlns="http://www.w3.org/2000/svg">
<circle cx="32" cy="32" r="32" fill="#FFC572"/>
<path d="M50.7055 28.4249C50.98 28.6944 51.1272 28.9937 51.147 29.3228C51.1669 29.652 51.0552 29.9405 50.812 30.1883L29.25 52.1551C29.0067 52.403 28.7203 52.52 28.3909 52.5063C28.0614 52.4925 27.7594 52.3509 27.4849 52.0815L17.7531 42.529C15.3076 40.1286 13.5779 37.723 12.5638 35.3119C11.5275 32.9234 11.2223 30.5889 11.648 28.3083C12.0516 26.0502 13.2001 23.8819 15.0935 21.8032C16.0416 20.7874 16.8805 19.9078 17.6103 19.1643C18.3401 18.4208 19.193 17.5769 20.1689 16.6326C22.3254 14.6353 24.5273 13.3903 26.7746 12.8978C28.997 12.3807 31.2883 12.617 33.6486 13.6067C35.9618 14.5944 38.3411 16.2884 40.7865 18.6887L50.7055 28.4249ZM40.1645 27.6334L36.1969 23.7389C35.1239 22.6857 34.0943 21.9626 33.1081 21.5697C32.0748 21.1748 31.0629 21.1326 30.0722 21.4431C29.0566 21.729 28.0166 22.3892 26.9522 23.4237C26.261 24.028 25.661 24.5893 25.1524 25.1075C24.6188 25.6012 24.1102 26.1194 23.6265 26.6621C23.1178 27.1803 22.5789 27.7793 22.0096 28.4591C20.5556 30.0402 19.9101 31.5963 20.073 33.1275C20.1888 34.6567 21.0701 36.2296 22.717 37.8462L26.4975 41.557L40.1645 27.6334Z" fill="#001B00"/>
<circle cx="41.5" cy="45.5" r="7.5" fill="white"/>
</svg>
